static_grf.mot
version=1
nRows=10
nColumns 19
inDegrees=yes
endheader
time	1_ground_force_vx	1_ground_force_vy	1_ground_force_vz	1_ground_force_px	1_ground_force_py	1_ground_force_pz	1_ground_torque_x	1_ground_torque_y	1_ground_torque_z	2_ground_force_vx	2_ground_force_vy	2_ground_force_vz	2_ground_force_px	2_ground_force_py	2_ground_force_pz	2_ground_torque_x	2_ground_torque_y	2_ground_torque_z
            1.501500	            0.721825	          403.925627	          -28.673196	           -0.284576	            0.006274	           -0.419299	            0.003960	            2.215753	           -0.157288	           -6.791956	          379.587790	           31.203441	           -0.274749	            0.005457	           -0.687865	            0.042166	           -2.356573	           -0.193719
            1.502000	            0.492526	          405.006980	          -28.622133	           -0.284705	            0.006271	           -0.418626	            0.002639	            2.169983	           -0.153354	           -6.741078	          378.482719	           31.293335	           -0.275123	            0.005454	           -0.687540	            0.041660	           -2.339020	           -0.193393
            1.502500	            0.675688	          404.286542	          -28.763248	           -0.284582	            0.006273	           -0.419209	            0.003699	            2.212997	           -0.157445	           -6.790709	          379.220178	           31.014414	           -0.275004	            0.005455	           -0.687577	            0.041148	           -2.297891	           -0.187932
            1.503000	            0.675883	          404.466445	          -28.670763	           -0.284752	            0.006272	           -0.418986	            0.003637	            2.176348	           -0.154271	           -6.651510	          379.589134	           30.968741	           -0.275159	            0.005455	           -0.687820	            0.040528	           -2.312842	           -0.188693
            1.503500	            0.538405	          403.565257	          -28.720143	           -0.284740	            0.006274	           -0.419453	            0.002913	            2.183780	           -0.155411	           -6.742530	          378.852005	           31.013080	           -0.275235	            0.005454	           -0.687732	            0.041659	           -2.340768	           -0.191617
            1.504000	            0.538387	          404.286123	          -28.671195	           -0.284655	            0.006273	           -0.419062	            0.002864	            2.150861	           -0.152535	           -6.696263	          379.035645	           31.201430	           -0.274831	            0.005455	           -0.687559	            0.039885	           -2.257638	           -0.185844
            1.504500	            0.630285	          403.745177	          -28.627885	           -0.284473	            0.006273	           -0.419276	            0.003427	            2.195188	           -0.155652	           -6.464007	          379.588974	           31.203301	           -0.275142	            0.005455	           -0.687721	            0.040487	           -2.377561	           -0.195442
            1.505000	            0.538582	          404.466026	          -28.578710	           -0.284537	            0.006272	           -0.418886	            0.002890	            2.170202	           -0.153342	           -6.930553	          379.035134	           31.107673	           -0.275026	            0.005455	           -0.687554	            0.041724	           -2.281910	           -0.187278
            1.505500	            0.813463	          403.565310	          -28.720825	           -0.284752	            0.006274	           -0.419402	            0.004456	            2.210888	           -0.157344	           -6.788674	          378.667360	           31.106299	           -0.275019	            0.005455	           -0.687613	            0.040771	           -2.274201	           -0.186818
            1.506000	            0.493017	          403.564461	          -28.536605	           -0.284788	            0.006274	           -0.419341	            0.002705	            2.214440	           -0.156586	           -6.742448	          378.851335	           31.200793	           -0.275126	            0.005455	           -0.687681	            0.042244	           -2.373642	           -0.195484
